<svg id="レイヤー_2" data-name="レイヤー 2" xmlns="http://www.w3.org/2000/svg" viewBox="0 0 324.81 83.95"><defs><style>.cls-1{fill:#fff;}</style></defs><path class="cls-1" d="M177.44,52.53h-3.38v-21h9.3a5.71,5.71,0,0,1,5.7,5.7v1.74a5.71,5.71,0,0,1-5.7,5.7h-5.92Zm0-11.29h5.92a2.32,2.32,0,0,0,2.32-2.32V37.18a2.32,2.32,0,0,0-2.32-2.32h-5.92Z"/><path class="cls-1" d="M139.09,53.05a7.54,7.54,0,0,1-7.6-7.52v-7a7.56,7.56,0,0,1,15.11,0h-3.37a4.18,4.18,0,0,0-8.36,0v7a4.18,4.18,0,0,0,8.36,0h3.37A7.52,7.52,0,0,1,139.09,53.05Z"/><path class="cls-1" d="M230.29,53.05A7.27,7.27,0,0,1,223,45.79V38.23a7.26,7.26,0,0,1,14.52,0v7.56A7.27,7.27,0,0,1,230.29,53.05Zm0-18.7a3.88,3.88,0,0,0-3.88,3.88v7.56a3.89,3.89,0,0,0,7.77,0V38.23A3.89,3.89,0,0,0,230.29,34.35Z"/><polygon class="cls-1" points="126.28 34.86 126.28 31.48 111.57 31.48 111.57 52.53 126.28 52.53 126.28 49.16 114.95 49.16 114.95 43.39 123.13 43.39 123.13 40.01 114.95 40.01 114.95 34.86 126.28 34.86"/><polygon class="cls-1" points="167.81 34.86 167.81 31.48 153.1 31.48 153.1 52.53 167.81 52.53 167.81 49.16 156.48 49.16 156.48 43.39 164.67 43.39 164.67 40.01 156.48 40.01 156.48 34.86 167.81 34.86"/><polygon class="cls-1" points="207.5 31.48 192.59 31.48 192.59 34.86 198.36 34.86 198.36 52.53 201.74 52.53 201.74 34.86 207.5 34.86 207.5 31.48"/><polygon class="cls-1" points="309 31.48 294.09 31.48 294.09 34.86 299.86 34.86 299.86 52.53 303.24 52.53 303.24 34.86 309 34.86 309 31.48"/><polygon class="cls-1" points="247.42 52.53 244.04 52.53 244.04 31.48 247.24 31.48 255.23 45.3 255.23 31.48 258.61 31.48 258.61 52.53 255.41 52.53 247.42 38.54 247.42 52.53"/><rect class="cls-1" x="213.29" y="31.48" width="3.38" height="21.05"/><rect class="cls-1" x="265.84" y="31.48" width="3.38" height="21.05"/><path class="cls-1" d="M104.49,37.18a5.71,5.71,0,0,0-5.7-5.7H89.5V52.53h3.37V44.62h5.92a2.32,2.32,0,0,1,2.32,2.32v5.59h3.38V46.94a5.69,5.69,0,0,0-1.65-4,5.69,5.69,0,0,0,1.65-4ZM92.87,41.24V34.86h5.92a2.32,2.32,0,0,1,2.32,2.32v1.74a2.32,2.32,0,0,1-2.32,2.32Z"/><path class="cls-1" d="M283.31,40.17c-4.52-.79-4.57-2.2-4.6-2.88a2.61,2.61,0,0,1,.85-2.09,4.85,4.85,0,0,1,3.93-.85,5.47,5.47,0,0,1,4.1,2.53l2.67-2.08A8.81,8.81,0,0,0,283.93,31c-3.45-.46-5.52.66-6.65,1.69a6.08,6.08,0,0,0-1.95,4.73c.2,4.82,5.62,5.76,7.41,6.07,3,.52,4.67,1.8,4.52,3.5-.06.67-.24,2.71-4.06,2.55a7.46,7.46,0,0,1-5.71-2.8l-2.58,2.17a10.84,10.84,0,0,0,8.14,4h.56c4.09,0,6.7-2.07,7-5.63C290.87,44.51,289.08,41.17,283.31,40.17Z"/><path class="cls-1" d="M63.34,48.69A12.88,12.88,0,0,0,65.74,46a9.58,9.58,0,0,0,1.57-5.5A10.43,10.43,0,0,0,56.89,30.12a10.72,10.72,0,0,0-1.79.15A5.93,5.93,0,0,1,57,34a6,6,0,0,1-1,4.1l-.29.38a2.19,2.19,0,0,0-.41,1.27A2.55,2.55,0,0,0,56,41.36C56.78,42.39,60.88,46.4,63.34,48.69Z"/><path class="cls-1" d="M69.19,40c0,.09,0,.48,0,.58s0,.25,0,.33a12.26,12.26,0,0,1-.88,4.38h0c0,.11,0,.21,0,.24s.12,0,.19-.1a20.25,20.25,0,0,0,3-11A20.48,20.48,0,0,0,36.05,20.79l0,0a86.56,86.56,0,0,0-20.21,43.7,1.81,1.81,0,0,0,1.78,2.06h13a1.79,1.79,0,0,0,1.76-1.46,69.34,69.34,0,0,1,8.78-23.59,57.15,57.15,0,0,1,7-9.67l.64-.59a9.31,9.31,0,0,1,.76-.62l.07-.05c.28-.2.56-.39.85-.57h0c.29-.17.59-.34.9-.49l.09-.05q.45-.21.9-.39l.15-.06c.3-.11.61-.22.92-.31l.16,0c.31-.09.63-.16,1-.23l.15,0c.33-.06.67-.11,1-.14h.11c.35,0,.72-.05,1.09-.05h0A12.32,12.32,0,0,1,69.15,39.35S69.18,39.8,69.19,40Z"/><path class="cls-1" d="M81.08,64.35,79,63.07A123,123,0,0,1,63.18,51.13c-1.81-1.62-7.6-7.2-8.71-8.58a4.4,4.4,0,0,1-1.07-2.76,4.09,4.09,0,0,1,.37-1.68h0c0-.05,0-.11,0-.14a.13.13,0,0,0-.15,0l-.8.85A17.82,17.82,0,0,0,57,66.3a3.18,3.18,0,0,0,1.6.28H80.46A1.2,1.2,0,0,0,81.08,64.35Z"/></svg>